<svg width="180" height="344" viewBox="0 0 180 344" fill="none" xmlns="http://www.w3.org/2000/svg">
<circle cx="90" cy="254" r="90" fill="#FA9055"/>
<path d="M124 2L106.314 19.6863C100.065 25.9347 100.065 36.0653 106.314 42.3137L112.686 48.6863C118.935 54.9347 118.935 65.0653 112.686 71.3137L106.314 77.6863C100.065 83.9347 100.065 94.0653 106.314 100.314L112.686 106.686C118.935 112.935 118.935 123.065 112.686 129.314L106.314 135.686C100.065 141.935 100.065 152.065 106.314 158.314L112.686 164.686C118.935 170.935 118.935 181.065 112.686 187.314L106.314 193.686C100.065 199.935 100.065 210.065 106.314 216.314L112.686 222.686C118.935 228.935 118.935 239.065 112.686 245.314L95 263" stroke="white" stroke-width="3"/>
</svg>
