<svg width="224" height="224" viewBox="0 0 224 224" fill="none" xmlns="http://www.w3.org/2000/svg">
<circle cx="8" cy="8" r="8" fill="#FA9055"/>
<circle cx="34" cy="8" r="8" fill="#FA9055"/>
<circle cx="60" cy="8" r="8" fill="#FA9055"/>
<circle cx="86" cy="8" r="8" fill="#FA9055"/>
<circle cx="112" cy="8" r="8" fill="#FA9055"/>
<circle cx="138" cy="8" r="8" fill="#FA9055"/>
<circle cx="164" cy="8" r="8" fill="#FA9055"/>
<circle cx="190" cy="8" r="8" fill="#FA9055"/>
<circle cx="216" cy="8" r="8" fill="#FA9055"/>
<circle cx="8" cy="34" r="8" fill="#FA9055"/>
<circle cx="34" cy="34" r="8" fill="#FA9055"/>
<circle cx="60" cy="34" r="8" fill="#FA9055"/>
<circle cx="86" cy="34" r="8" fill="#FA9055"/>
<circle cx="112" cy="34" r="8" fill="#FA9055"/>
<circle cx="138" cy="34" r="8" fill="#FA9055"/>
<circle cx="164" cy="34" r="8" fill="#FA9055"/>
<circle cx="190" cy="34" r="8" fill="#FA9055"/>
<circle cx="216" cy="34" r="8" fill="#FA9055"/>
<circle cx="8" cy="60" r="8" fill="#FA9055"/>
<circle cx="34" cy="60" r="8" fill="#FA9055"/>
<circle cx="60" cy="60" r="8" fill="#FA9055"/>
<circle cx="86" cy="60" r="8" fill="#FA9055"/>
<circle cx="112" cy="60" r="8" fill="#FA9055"/>
<circle cx="138" cy="60" r="8" fill="#FA9055"/>
<circle cx="164" cy="60" r="8" fill="#FA9055"/>
<circle cx="190" cy="60" r="8" fill="#FA9055"/>
<circle cx="216" cy="60" r="8" fill="#FA9055"/>
<circle cx="8" cy="86" r="8" fill="#FA9055"/>
<circle cx="34" cy="86" r="8" fill="#FA9055"/>
<circle cx="60" cy="86" r="8" fill="#FA9055"/>
<circle cx="86" cy="86" r="8" fill="#FA9055"/>
<circle cx="112" cy="86" r="8" fill="#FA9055"/>
<circle cx="138" cy="86" r="8" fill="#FA9055"/>
<circle cx="164" cy="86" r="8" fill="#FA9055"/>
<circle cx="190" cy="86" r="8" fill="#FA9055"/>
<circle cx="216" cy="86" r="8" fill="#FA9055"/>
<circle cx="8" cy="112" r="8" fill="#FA9055"/>
<circle cx="34" cy="112" r="8" fill="#FA9055"/>
<circle cx="60" cy="112" r="8" fill="#FA9055"/>
<circle cx="86" cy="112" r="8" fill="#FA9055"/>
<circle cx="112" cy="112" r="8" fill="#FA9055"/>
<circle cx="138" cy="112" r="8" fill="#FA9055"/>
<circle cx="164" cy="112" r="8" fill="#FA9055"/>
<circle cx="190" cy="112" r="8" fill="#FA9055"/>
<circle cx="216" cy="112" r="8" fill="#FA9055"/>
<circle cx="8" cy="138" r="8" fill="#FA9055"/>
<circle cx="34" cy="138" r="8" fill="#FA9055"/>
<circle cx="60" cy="138" r="8" fill="#FA9055"/>
<circle cx="86" cy="138" r="8" fill="#FA9055"/>
<circle cx="112" cy="138" r="8" fill="#FA9055"/>
<circle cx="138" cy="138" r="8" fill="#FA9055"/>
<circle cx="164" cy="138" r="8" fill="#FA9055"/>
<circle cx="190" cy="138" r="8" fill="#FA9055"/>
<circle cx="216" cy="138" r="8" fill="#FA9055"/>
<circle cx="8" cy="164" r="8" fill="#FA9055"/>
<circle cx="34" cy="164" r="8" fill="#FA9055"/>
<circle cx="60" cy="164" r="8" fill="#FA9055"/>
<circle cx="86" cy="164" r="8" fill="#FA9055"/>
<circle cx="112" cy="164" r="8" fill="#FA9055"/>
<circle cx="138" cy="164" r="8" fill="#FA9055"/>
<circle cx="164" cy="164" r="8" fill="#FA9055"/>
<circle cx="190" cy="164" r="8" fill="#FA9055"/>
<circle cx="216" cy="164" r="8" fill="#FA9055"/>
<circle cx="8" cy="190" r="8" fill="#FA9055"/>
<circle cx="34" cy="190" r="8" fill="#FA9055"/>
<circle cx="60" cy="190" r="8" fill="#FA9055"/>
<circle cx="86" cy="190" r="8" fill="#FA9055"/>
<circle cx="112" cy="190" r="8" fill="#FA9055"/>
<circle cx="138" cy="190" r="8" fill="#FA9055"/>
<circle cx="164" cy="190" r="8" fill="#FA9055"/>
<circle cx="190" cy="190" r="8" fill="#FA9055"/>
<circle cx="216" cy="190" r="8" fill="#FA9055"/>
<circle cx="8" cy="216" r="8" fill="#FA9055"/>
<circle cx="34" cy="216" r="8" fill="#FA9055"/>
<circle cx="60" cy="216" r="8" fill="#FA9055"/>
<circle cx="86" cy="216" r="8" fill="#FA9055"/>
<circle cx="112" cy="216" r="8" fill="#FA9055"/>
<circle cx="138" cy="216" r="8" fill="#FA9055"/>
<circle cx="164" cy="216" r="8" fill="#FA9055"/>
<circle cx="190" cy="216" r="8" fill="#FA9055"/>
<circle cx="216" cy="216" r="8" fill="#FA9055"/>
</svg>
