<svg width="265" height="33" viewBox="0 0 265 33" fill="none" xmlns="http://www.w3.org/2000/svg">
<path d="M263 31L245.314 13.3137C239.065 7.06532 228.935 7.06532 222.686 13.3137L216.314 19.6863C210.065 25.9347 199.935 25.9347 193.686 19.6863L187.314 13.3137C181.065 7.06531 170.935 7.06531 164.686 13.3137L158.314 19.6863C152.065 25.9347 141.935 25.9347 135.686 19.6863L129.314 13.3137C123.065 7.06531 112.935 7.06531 106.686 13.3137L100.314 19.6863C94.0653 25.9347 83.9347 25.9347 77.6863 19.6863L71.3137 13.3137C65.0653 7.06531 54.9347 7.06531 48.6863 13.3137L42.3137 19.6863C36.0653 25.9347 25.9347 25.9347 19.6863 19.6863L2.00001 1.99999" stroke="white" stroke-width="3"/>
</svg>
